<svg xmlns="http://www.w3.org/2000/svg" width="600" height="400" viewBox="0 0 600 400"><rect width="100%" height="100%" fill="#3f5a4c"/><path fill="#fff" d="M203.6 159.26h6.03q2.22 0 3.87-.56 1.65-.55 2.75-1.58 1.09-1.04 1.63-2.52.54-1.49.54-3.32 0-1.74-.54-3.15t-1.62-2.4q-1.08-.99-2.73-1.52-1.65-.52-3.9-.52h-6.03v15.57Zm-8.07-21.81h14.1q4.35 0 7.53 1.02 3.18 1.02 5.25 2.85t3.08 4.38q1 2.55 1 5.58 0 3.15-1.05 5.78-1.05 2.62-3.15 4.51-2.1 1.89-5.26 2.94-3.17 1.05-7.4 1.05h-6.03v15.27h-8.07v-43.38Zm42.51 14.46.45 3.48q1.44-2.76 3.42-4.33 1.98-1.58 4.68-1.58 2.13 0 3.42.93l-.48 5.55q-.15.54-.43.76-.29.23-.77.23-.45 0-1.33-.15-.89-.15-1.73-.15-1.23 0-2.19.36t-1.72 1.03q-.77.68-1.35 1.64-.59.96-1.1 2.19v18.96h-7.41v-30.78h4.35q1.14 0 1.59.4.45.41.6 1.46Zm29.46-2.34q3.42 0 6.23 1.11 2.8 1.11 4.8 3.15 1.99 2.04 3.07 4.98 1.08 2.94 1.08 6.57 0 3.66-1.08 6.6-1.08 2.94-3.07 5.01-2 2.07-4.8 3.18-2.81 1.11-6.23 1.11-3.45 0-6.27-1.11-2.82-1.11-4.81-3.18-2-2.07-3.09-5.01-1.1-2.94-1.1-6.6 0-3.63 1.1-6.57 1.09-2.94 3.09-4.98 1.99-2.04 4.81-3.15 2.82-1.11 6.27-1.11Zm0 26.01q3.84 0 5.69-2.58 1.84-2.58 1.84-7.56 0-4.98-1.84-7.59-1.85-2.61-5.69-2.61-3.9 0-5.77 2.63-1.88 2.62-1.88 7.57t1.88 7.55q1.87 2.59 5.77 2.59Zm21.09-25.53h7.44v31.83q0 2.01-.52 3.78-.53 1.77-1.68 3.1-1.16 1.34-3.03 2.11-1.88.76-4.58.76-1.05 0-1.95-.14-.9-.13-1.86-.43l.27-3.99q.09-.6.48-.77.39-.16 1.5-.16 1.11 0 1.88-.23.76-.22 1.21-.71.45-.5.65-1.31.19-.81.19-2.01v-31.83Zm8.46-8.97q0 .96-.39 1.8-.39.84-1.03 1.47-.65.63-1.53 1-.89.38-1.88.38-.96 0-1.8-.38-.84-.37-1.47-1t-1-1.47q-.38-.84-.38-1.8 0-.99.38-1.86.37-.87 1-1.5t1.47-1q.84-.38 1.8-.38.99 0 1.88.38.88.37 1.53 1 .64.63 1.03 1.5t.39 1.86Zm12.39 20.82h13.98q0-1.44-.4-2.71-.41-1.28-1.22-2.24-.81-.96-2.05-1.51-1.25-.56-2.9-.56-3.21 0-5.05 1.83-1.85 1.83-2.36 5.19Zm18.9 4.47h-19.05q.18 2.37.84 4.09.66 1.73 1.74 2.86 1.08 1.12 2.57 1.68 1.48.55 3.28.55 1.8 0 3.11-.42 1.3-.42 2.28-.93.97-.51 1.71-.93.73-.42 1.42-.42.93 0 1.38.69l2.13 2.7q-1.23 1.44-2.76 2.42-1.53.97-3.19 1.56-1.67.58-3.39.82-1.73.24-3.35.24-3.21 0-5.97-1.06-2.76-1.07-4.8-3.15-2.04-2.09-3.21-5.16-1.17-3.08-1.17-7.13 0-3.15 1.02-5.92 1.02-2.78 2.93-4.83 1.9-2.06 4.65-3.26 2.74-1.2 6.19-1.2 2.91 0 5.37.93t4.23 2.72q1.77 1.78 2.78 4.38 1 2.59 1 5.92 0 1.68-.36 2.27-.36.58-1.38.58Zm31.29-12.51-1.95 2.7q-.33.42-.64.66-.32.24-.92.24-.57 0-1.11-.34-.54-.35-1.29-.78-.75-.44-1.78-.78-1.04-.35-2.57-.35-1.95 0-3.42.71-1.47.7-2.44 2.02-.98 1.32-1.46 3.19-.48 1.88-.48 4.25 0 2.46.53 4.38.52 1.92 1.51 3.23.99 1.3 2.4 1.97 1.41.68 3.18.68 1.77 0 2.87-.44 1.09-.43 1.84-.95.75-.53 1.31-.96.55-.44 1.24-.44.9 0 1.35.69l2.13 2.7q-1.23 1.44-2.67 2.42-1.44.97-2.98 1.56-1.55.58-3.18.82-1.64.24-3.26.24-2.85 0-5.37-1.06-2.52-1.07-4.41-3.11-1.89-2.04-2.98-4.99-1.1-2.96-1.1-6.74 0-3.39.98-6.28.97-2.9 2.86-5.01 1.89-2.12 4.68-3.32 2.79-1.2 6.42-1.2 3.45 0 6.05 1.11 2.59 1.11 4.66 3.18Zm15.18 27.45q-4.02 0-6.16-2.26-2.15-2.27-2.15-6.26V155.6h-3.15q-.6 0-1.02-.39-.42-.39-.42-1.17v-2.94l4.95-.81 1.56-8.4q.15-.6.57-.93.42-.33 1.08-.33h3.84v9.69h8.22v5.28h-8.22v16.68q0 1.44.71 2.25.7.81 1.93.81.69 0 1.16-.16.46-.17.81-.35.34-.18.61-.34.27-.17.54-.17.33 0 .54.17.21.16.45.49l2.22 3.6q-1.62 1.35-3.72 2.04t-4.35.69Zm32.52-27.93-1.68 2.67q-.3.48-.63.67-.33.2-.84.2-.54 0-1.15-.3-.62-.3-1.43-.67-.81-.38-1.84-.68-1.04-.3-2.45-.3-2.19 0-3.43.93-1.25.93-1.25 2.43 0 .99.65 1.66.64.68 1.71 1.19 1.06.51 2.41.92 1.35.4 2.75.88 1.39.48 2.74 1.1 1.35.61 2.42 1.55 1.06.95 1.71 2.27.64 1.32.64 3.18 0 2.22-.79 4.1-.8 1.87-2.36 3.23-1.56 1.37-3.85 2.14-2.3.76-5.3.76-1.59 0-3.1-.28-1.52-.29-2.91-.8-1.4-.51-2.58-1.2-1.19-.69-2.09-1.5l1.71-2.82q.33-.51.78-.78t1.14-.27q.69 0 1.31.39.61.39 1.42.84.81.45 1.91.84 1.09.39 2.77.39 1.32 0 2.27-.31.94-.32 1.56-.83.61-.51.9-1.19.28-.67.28-1.39 0-1.08-.64-1.77-.65-.69-1.71-1.2-1.07-.51-2.43-.91-1.37-.41-2.79-.89-1.43-.48-2.79-1.12-1.37-.65-2.43-1.64-1.07-.99-1.71-2.43-.65-1.44-.65-3.48 0-1.89.75-3.6.75-1.71 2.21-2.98 1.45-1.28 3.63-2.04 2.17-.77 5.02-.77 3.18 0 5.79 1.05t4.35 2.76ZM153.18 242.6q.66 0 1.17.51l3.18 3.45q-2.64 3.27-6.49 5.01-3.86 1.74-9.26 1.74-4.83 0-8.68-1.65-3.86-1.65-6.59-4.59t-4.18-7.02q-1.46-4.08-1.46-8.91 0-4.89 1.56-8.95 1.56-4.07 4.4-7.01 2.83-2.94 6.76-4.58 3.93-1.63 8.7-1.63 4.74 0 8.42 1.56 3.67 1.56 6.25 4.08l-2.7 3.75q-.24.36-.61.63-.38.27-1.04.27-.45 0-.93-.25-.48-.26-1.05-.63-.57-.38-1.32-.83-.75-.45-1.74-.82-.99-.38-2.29-.63-1.31-.26-3.02-.26-2.91 0-5.32 1.04-2.42 1.03-4.16 3-1.74 1.96-2.7 4.79-.96 2.84-.96 6.47 0 3.66 1.04 6.51 1.03 2.85 2.8 4.8 1.77 1.95 4.17 2.99 2.4 1.03 5.16 1.03 1.65 0 2.99-.18 1.33-.18 2.46-.57 1.12-.39 2.13-1.01 1-.61 1.99-1.51.3-.27.63-.43.33-.17.69-.17Zm22.35-21.03q3.42 0 6.23 1.11 2.8 1.11 4.8 3.15 1.99 2.04 3.07 4.98 1.08 2.94 1.08 6.57 0 3.66-1.08 6.6-1.08 2.94-3.07 5.01-2 2.07-4.8 3.18-2.81 1.11-6.23 1.11-3.45 0-6.27-1.11-2.82-1.11-4.81-3.18-2-2.07-3.09-5.01-1.1-2.94-1.1-6.6 0-3.63 1.1-6.57 1.09-2.94 3.09-4.98 1.99-2.04 4.81-3.15 2.82-1.11 6.27-1.11Zm0 26.01q3.84 0 5.69-2.58 1.84-2.58 1.84-7.56 0-4.98-1.84-7.59-1.85-2.61-5.69-2.61-3.9 0-5.77 2.62-1.88 2.63-1.88 7.58t1.88 7.55q1.87 2.59 5.77 2.59Zm28.26 5.25h-7.41v-30.78h4.53q1.44 0 1.89 1.35l.48 2.28q.81-.9 1.7-1.65.88-.75 1.89-1.29 1-.54 2.16-.86 1.15-.31 2.53-.31 2.91 0 4.79 1.57 1.87 1.58 2.8 4.19.72-1.53 1.8-2.62 1.08-1.1 2.37-1.79t2.75-1.02q1.45-.33 2.92-.33 2.55 0 4.53.78 1.98.78 3.33 2.28 1.35 1.5 2.06 3.66.7 2.16.7 4.95v19.59h-7.41v-19.59q0-2.94-1.29-4.43-1.29-1.48-3.78-1.48-1.14 0-2.11.39-.98.39-1.71 1.13-.74.73-1.16 1.84-.42 1.11-.42 2.55v19.59h-7.44v-19.59q0-3.09-1.24-4.5-1.25-1.41-3.65-1.41-1.62 0-3.01.8-1.4.79-2.6 2.17v22.53Zm43.08-30.78h7.44v30.78h-7.44v-30.78Zm8.46-8.97q0 .96-.39 1.8-.39.84-1.03 1.47-.65.63-1.52 1-.87.38-1.86.38-.96 0-1.81-.38-.86-.37-1.49-1t-1-1.47q-.38-.84-.38-1.8 0-.99.38-1.86.37-.87 1-1.5t1.49-1q.85-.38 1.81-.38.99 0 1.86.38.87.37 1.52 1 .64.63 1.03 1.5t.39 1.86Zm12.96 10.32.51 2.43q.93-.93 1.97-1.72 1.03-.8 2.19-1.36 1.15-.55 2.47-.87 1.32-.31 2.88-.31 2.52 0 4.47.85 1.95.86 3.26 2.41 1.3 1.54 1.98 3.69.67 2.14.67 4.72v19.59h-7.41v-19.59q0-2.82-1.29-4.36-1.29-1.55-3.93-1.55-1.92 0-3.6.87-1.68.87-3.18 2.37v22.26h-7.41v-30.78h4.53q1.44 0 1.89 1.35Zm38.67 13.29q1.38 0 2.4-.38 1.02-.37 1.7-1.03.67-.66 1.02-1.59.34-.93.34-2.04 0-2.28-1.36-3.62-1.37-1.33-4.1-1.33-2.73 0-4.09 1.33-1.37 1.34-1.37 3.62 0 1.08.35 2.01.34.93 1.02 1.61.67.67 1.71 1.04 1.03.38 2.38.38Zm8.37 17.52q0-.9-.54-1.47t-1.47-.88q-.93-.32-2.17-.47-1.25-.15-2.64-.23-1.4-.07-2.88-.13-1.49-.06-2.9-.24-1.23.69-1.99 1.62-.77.93-.77 2.16 0 .81.41 1.51.4.71 1.29 1.22.88.51 2.29.8 1.41.28 3.45.28 2.07 0 3.57-.32 1.5-.31 2.48-.87.97-.55 1.42-1.31.45-.77.45-1.67Zm-1.47-31.11h8.85v2.76q0 1.32-1.59 1.62l-2.76.51q.63 1.59.63 3.48 0 2.28-.91 4.13-.92 1.84-2.54 3.13-1.62 1.29-3.82 1.99-2.21.71-4.76.71-.9 0-1.74-.09t-1.65-.24q-1.44.87-1.44 1.95 0 .93.86 1.37.85.43 2.26.61 1.41.18 3.21.22 1.8.05 3.69.2 1.89.15 3.69.52 1.8.38 3.21 1.19 1.41.81 2.27 2.2.85 1.4.85 3.59 0 2.04-1 3.96-1.01 1.92-2.91 3.42-1.91 1.5-4.68 2.41-2.78.92-6.32.92-3.48 0-6.06-.67-2.58-.68-4.29-1.8-1.71-1.13-2.55-2.6-.84-1.47-.84-3.06 0-2.16 1.31-3.62 1.3-1.45 3.58-2.32-1.23-.63-1.95-1.68-.72-1.05-.72-2.76 0-.69.26-1.43.25-.73.75-1.45.49-.72 1.24-1.36.75-.65 1.77-1.16-2.34-1.26-3.67-3.36-1.34-2.1-1.34-4.92 0-2.28.92-4.12.91-1.85 2.55-3.15 1.63-1.31 3.87-2 2.23-.69 4.87-.69 1.98 0 3.72.41 1.74.4 3.18 1.18Zm48.57 2.28-1.68 2.67q-.3.48-.63.67-.33.2-.84.2-.54 0-1.15-.3-.62-.3-1.43-.67-.81-.38-1.84-.68-1.04-.3-2.45-.3-2.19 0-3.43.93-1.25.93-1.25 2.43 0 .99.65 1.66.64.68 1.71 1.19 1.06.51 2.41.92 1.35.4 2.75.88 1.39.48 2.74 1.1 1.35.61 2.42 1.55 1.06.95 1.71 2.27.64 1.32.64 3.18 0 2.22-.79 4.09-.8 1.88-2.36 3.24-1.56 1.37-3.85 2.14-2.3.76-5.3.76-1.59 0-3.1-.29-1.52-.28-2.91-.79-1.4-.51-2.58-1.2-1.19-.69-2.09-1.5l1.71-2.82q.33-.51.78-.78t1.14-.27q.69 0 1.31.39.61.39 1.42.84.81.45 1.91.84 1.09.39 2.77.39 1.32 0 2.27-.32.94-.31 1.56-.82.61-.51.9-1.18.28-.68.28-1.4 0-1.08-.64-1.77-.65-.69-1.71-1.2-1.07-.51-2.43-.91-1.37-.41-2.79-.89-1.43-.48-2.79-1.13-1.37-.64-2.43-1.63-1.07-.99-1.71-2.43-.65-1.44-.65-3.48 0-1.89.75-3.6.75-1.71 2.21-2.98 1.45-1.28 3.63-2.04 2.17-.77 5.02-.77 3.18 0 5.79 1.05t4.35 2.76Zm19.53-3.81q3.42 0 6.23 1.11 2.8 1.11 4.8 3.15 1.99 2.04 3.07 4.98 1.08 2.94 1.08 6.57 0 3.66-1.08 6.6-1.08 2.94-3.07 5.01-2 2.07-4.8 3.18-2.81 1.11-6.23 1.11-3.45 0-6.27-1.11-2.82-1.11-4.81-3.18-2-2.07-3.09-5.01-1.1-2.94-1.1-6.6 0-3.63 1.1-6.57 1.09-2.94 3.09-4.98 1.99-2.04 4.81-3.15 2.82-1.11 6.27-1.11Zm0 26.01q3.84 0 5.69-2.58 1.84-2.58 1.84-7.56 0-4.98-1.84-7.59-1.85-2.61-5.69-2.61-3.9 0-5.77 2.62-1.88 2.63-1.88 7.58t1.88 7.55q1.87 2.59 5.77 2.59Zm34.47-26.01q3.42 0 6.23 1.11 2.8 1.11 4.8 3.15 1.99 2.04 3.07 4.98 1.08 2.94 1.08 6.57 0 3.66-1.08 6.6-1.08 2.94-3.07 5.01-2 2.07-4.8 3.18-2.81 1.11-6.23 1.11-3.45 0-6.27-1.11-2.82-1.11-4.81-3.18-2-2.07-3.09-5.01-1.1-2.94-1.1-6.6 0-3.63 1.1-6.57 1.09-2.94 3.09-4.98 1.99-2.04 4.81-3.15 2.82-1.11 6.27-1.11Zm0 26.01q3.84 0 5.69-2.58 1.84-2.58 1.84-7.56 0-4.98-1.84-7.59-1.85-2.61-5.69-2.61-3.9 0-5.77 2.62-1.88 2.63-1.88 7.58t1.88 7.55q1.87 2.59 5.77 2.59Zm27.27-24.18.51 2.43q.93-.93 1.97-1.72 1.03-.8 2.19-1.36 1.15-.55 2.47-.87 1.32-.31 2.88-.31 2.52 0 4.47.85 1.95.86 3.26 2.41 1.3 1.54 1.98 3.69.67 2.14.67 4.72v19.59h-7.41v-19.59q0-2.82-1.29-4.36-1.29-1.55-3.93-1.55-1.92 0-3.6.87-1.68.87-3.18 2.37v22.26h-7.41v-30.78h4.53q1.44 0 1.89 1.35Zm26.34 25.35q0-.93.35-1.77.34-.84.94-1.44.6-.6 1.44-.96t1.8-.36q.96 0 1.79.36.82.36 1.44.96.61.6.97 1.44t.36 1.77q0 .96-.36 1.78-.36.83-.97 1.43-.62.6-1.44.95-.83.34-1.79.34-.96 0-1.8-.34-.84-.35-1.44-.95t-.94-1.43q-.35-.82-.35-1.78Z"/></svg>